<mxfile host="app.diagrams.net" agent="Mozilla/5.0 (Windows NT 10.0; Win64; x64) AppleWebKit/537.36 (KHTML, like Gecko) Chrome/130.0.0.0 Safari/537.36" version="24.8.2">
  <diagram name="第 1 页" id="0ORCdapBa5wPfb6BJabH">
    <mxGraphModel dx="2333" dy="1178" grid="1" gridSize="10" guides="1" tooltips="1" connect="1" arrows="1" fold="1" page="1" pageScale="1" pageWidth="827" pageHeight="1169" math="0" shadow="0">
      <root>
        <mxCell id="0" />
        <mxCell id="1" parent="0" />
        <mxCell id="9Xpj_7Ezi3XWuGHcOxMx-1" value="" style="shape=image;verticalLabelPosition=bottom;labelBackgroundColor=default;verticalAlign=top;aspect=fixed;imageAspect=0;image=data:image/png,iVBORw0KGgoAAAANSUhEUgAABfIAAABECAMAAAD9cjS8AAAAAXNSR0IArs4c6QAAAARnQU1BAACxjwv8YQUAAACuUExURQAAAAAAAAAAAAAAAAAAAAAAAAAAAAAAAAAAAAAAAAAAAAAAAAAAAAAAAAAAAAAAAAAAAAAAAAAAAAAAAAAAAAAAAAAAAAAAAAAAAAAAAAAAAAAAAAAAAAAAAAAAAAAAAAAAAAAAAAAAAAAAAAAAAAAAAAAAAAAAAAAAAAAAAAAAAAAAAAAAAAAAAAAAAAAAAAAAAAAAAAAAAAAAAAAAAAAAAAAAAAAAAAAAAAAAAF7IU6UAAAA5dFJOUwAECAoVGR0gISQoKy82PEJFR0lNUFRYXWJkaGttdHd8gISGjI2SmZ2eoqavsri/wMXMzdLX4e70+WidHtIAAAAJcEhZcwAAFxEAABcRAcom8z8AABB2SURBVHhe7ZzpghW3EYUHErAHvITBBseJwcEGB2MCNhjPff8XyylVSVVauu/cpe8C5/vBdKu1nCqVqoV64IIQQgghhBBCCCGEEEIIIYQQQgghhBBCCCGEEEIIIYQQQgghhBBCCCGEEEIIIYQQQgghhBBCCCGEEEIIIYQQQgghe+Wr1eqPv9m1gPu//n7x+Qf5c1/8vFq9sktCCCFHo8vtmvIvvttnlmbKJ4SQUwDZ+JFdKpbyb/3WPtiBZ2/f/mKXhBBy5rRnI2C/ByPL0Uu3lH82FpwEgwhY68C9vlQJIQdjuLb3ejCyGIO0k1O+7P9/TCVkHePsviYEmPJPnm3e5Htm8zPR7U5R1dQ2Jo+07+uXxokdDXdnI8J5LOhBTJeUf6TpPkeGEbAuBDaMkO/67EOWZas3+Z45UMo3U7uYPM7O9dRT/mgrAM4iY4ZcdevB76vV9Zv7JeV3fk81Vu+fiLG3/1xdf3n3+Yd8rwVykf2Rmt96nvrwCbvzferj5f101zWqxmj4+nV8MuiokxMLwNev/Taq25mJCFgTAn1cz/Lzyab8Yn7y9+rpngL/+Ks8rI7AhvO2I5t/BistNtkkmKn9mj+osZl+1K2MWopJp8CLp34w4ik3mSFcv8gpv33D5xqrd3gsLX+QBQ7+krTbZW+p/liawDll9T62JqvVLzJxw0YJGaPmmT3RBoOOOjlVwYXk98Q7uY3qdkX6GnczGwLTzUbAoOPH+pDyYoNE4dGedoYlaI7Fdm/y02GDTUI2tY/Joxg7szROYeczFRjnEBlBOxbY6s23D1NeNNkwIFqGyu++uLz32+rt47y8X377ULbeUktybJe98fp4/xZzl1cvkgG22Vf//B9+SkHXqBqjAk2vX159jywu9QYdgVpOXSAarh9f3kOLVt2uBC82zIbAZim/mYwTAo5VM2SKHl9efraZYZMc+9e8ps2AxWfwlQtL4KYRU0wd2HwMY6ddv4FRy1EiHlRnD63u7c9FFsP3Y8goOrMYPqcp15SIhsozu5Xsi4uhAbqjTk1lHBnkVTJXsgNqd42qMSIynjz5/MP1my+HHXVy6gJpIvfWUVS3K3UE+Jz2IVDFgD5Mx2npbypCfVzlMSBGJE4v1fgLz2Y5+frUNzs3wA1rOQ/7oHJCf0cxtQvY4xg7kGFsYNRieNZqzx4k2VhCFcSMxObnIosBhZZDcGUTi4VrV5BQTAN44AlHMqcaZ1dDA3JzSwY+iDRCZ12jaoxIvf5GHXVy6gI00Q5wgduobkcwQO6pPjwCOlihigG5eWQhY+dYzXGV1NAYQD/K2DtHJFlRrkze5DSeEzAir707z/xNDdzmzJovS6D5kISIqV/2kbhztKWThiw7wFDBoy8vEW2xUcQUU9WySllrbBAvAkTK9Uuru+mnunqD5PQyRkZNtV6akIsgKJw9tG8kVNz2XGQx4EhfpJabML6n/DjZeAAHf6E3YoA9Q1MIHhqQ0531rjVzyahRNUakzp2jjjo5dQH+1A7UvqhuR0y6gEHC4RFoNiWo6jGQZ1gWgU6DRHQ8rvIYuHv1bzT99urKXiWng1svai2ajrEz3Dcem2KOkr8w1dG4/svS4ENSftnH8DCqnaPFrTQpO8BYoVtC1qLOjvN4H0kZOhDyDDbGRvGv8jBWd7NPdd0GqdDL6I2abr007hAYmCZEzx60wCwWINpyEJC6eitW4GLsnaWtKZpkNDMD49sEJsenq0Ser/QKD7bBAggeGpDDTScsDCIlU43KGBHtwZjrqJOjBbnjBOyL6nbEI0BSgzgMg5vjggyh+FtIksTou6guP6V5dVyValgMmINOjmwS9CniCxEeIgeEfWl6mDesd+L+GX1l8MymHNXhi3rjKXvJ65f3F32zuMNFMN7UDzA9/kqLk4Hpql7VMv/rPyRdv/ivZMguCmXyfefoXig7wKqCR1gWrC022STUpr6Qb3pFeWdsES82Pv1w/euLYsXAD7U2/Aif6mqnRHoZvVHTrZcGZtqkueMMCA/rHRJ9diUoxCnlqvOOWB1aLwM06cqU0VSPjD9O+Vi3Mpcqy/VKJxA8NCAbrBMWBplqVI0R0R6MuY4mCqRJAU+iuh3xCMCVGoEL1YdhoiWQ4oOKBPU0qsuF/QBQLxWlRm7eRddpUPwMfUoyvDjAiPtSsSpvWOUtl0jbPrgnU6X8Zkt8W0Nkdb2vXwcd4ibc/ultshElNgUhukD3qpbp05WDgmym3MsD/BSTUiDIfTurVgdt0s4xeMHe/nUF3JmUHCHWYoOIcVPTMOk3J0w58BESRXyaOxlBSuTnyA+1NkjTPoXGKZFeRmfUTOulgRZf8OY4Q4S7GlkTW56LLIaLzy5N40+lfHBP/jqleqcMgB+yAdZ57l1rhpKuUSKPEXF9wqijTk5dUHdQqdsR9Nw6sfiwcWEVAy7BqqvQhF5KjSzawuLUKLLuXD1EJn55dZWsw4KMaiUFlH2pWGUbVrkM++d7VwlMv0SFeVOrhy2xFKze/UuqlVBdAGhuAgRG+cqwuBVQ08ol6tBIfui82VWJblzgViwo960FzUQHL9QJwsAITXmOwptHjJvqytyG2thURTVjIH1gVrgx7odaG1q4T1Fdh8KFjlToZXRGzbReGmjx1FKPLcJ9vcudsMW5yGJgbBsDVzZdMMOuICHOtaGBn6ciTq/2lacrGmCu8UGmGhm+uDJ5qm//+f7N/XFHnZyqQN1c2KN7SwRInwXVJ0Uh5ecaKQb8mZor9zmA0CfUSkkWefMFfFDg1qw5qoXTQ+jIFIilui9NTrANa7d/BvBGqm1Bk6pLv9KL1IInVum3N6ViEyZ7BMM3AeJRKZp8WnWywmW2txSYKUm7zbT2rfcVwaOCNZUmVlxXcE/nCMmD3Txi0MJMdWWmHNTGBiVl1syK0iJfdtrww7c8WWduHuhl5MrFqJnWS4OhfXZVRKbx1fbnIovh0SOTkYaTC3NhEAnuPv89ORuleI4/7SH6kAvRm57jvjPAXCON9G9+KBg1qseI5DyAijZ61VEnpyvIHVzcfi0Hx3t0LyToLEufBR1cimIIxBjwZ5pL5D4HkAZFFFli/bSAd7PCqBbX6oBErV3qhYeCJ1P9spG6saCR6tpa5z7/AKhRmu2dMq3g7k9v00f2PJxoKg/lpp43BF82EGLnPiTBM60FZnYmeMGcW1fwsbKX8/ObRwxamDXBsKRcLkKZ4EpKjan47bRJFUG2PPk60TghDGmDtEbNtV4aaBlOBQjCM9udiyyGR0VyYf9PsYIzpcZ/kIaeJTPFgPKFKpkN3av0Leep/qU+GpBdI3XeP7lKv8mVnjWN6jEqpObL9Jd5adh21Mnp9UHD9ZPLSzldQIs9uncmAtIwTQiUGPBn5miNhIT2FEXefAEfFDe+UlvbjdkKfpFnjZtCpMnE6VPzpncLF5ibrLkVLAOGMQv0d0OuJevbcJV50R40wiz5YtYCqVHAk86kiJuXsFtv0lTwsXKE5Oc3jxi0yKa6YSjU5qFMcCWYVq1x45QftzxSvZDdZfQyWqPmWi8N7LapyGr07AFAVi9G3eOBLVfowH6oLdKN/LSOl8PnxL+J/VCisF6pF18hWSbkU5u0/NHudTJzB69gYWtAnrDwW1z6qG1UjVFR5lhHazrq5PT6SgfpVGCP7vUIKGuggGEG8ehLRONa76W5ed6iIYq8+QI+KJjZnA6iWrdNKNOfiPWG+2ez01p5dbjA3Ga9md+WAcObSlxdy7dEH64zL0+NapbpqzKWFhdakyqaunbrTZoKEugaYTn68vObRwxaWN/1MNq8NjZUKeFujiktsoZem5C3PFnngF5GrlyMmmm9NDDGhobhyTVl5brFYJdzkeWA4/Jsdr/51kx1MgHi9BfqxIBHd2UL/f5xmgLUfwYHvH+cAyAa4PNj/1bjyWd62zaqxmhIv+dX/iOGuqNOzkCfdgAL5XqP7u0jwA6P5CKGQBMD7l8zXjR3515Z5CA5nAIxgIJat02ol2eo1++fUTWbaa28+mFTPqZVhy0CfDgUhWktCz7NIKqmiYwFqKGJSmlNqshJzXaOnReaCjaC1kjl2du53nqKqamTSjmojQ1KilXmmKEfam2K1m+cEulldEbNtF6a4FioCGcPTUSKFdueiyzHXFjMLigxoHofHJdOzgH1BR8iMMPhEah9WMeA3KnEXEtiIB5XxRjAKPIbyd/Y7akAi7PCqNZtE/J6VUI98Ve1f4YH9N8uAWvl1eECqeW9WcEyQIoOk7OODGzDoShkQakw/2UJ9qk72g9JAwtyXXGFWxucVleQByn8cKsX2T83904xNfWmSqU7ncHa2KAEVTTwbfo6P7Ta6i1P45RIL6Mzaqb10gSHJKGCOiJ4UtjhXGQ5ZBSd2B54eVqATO9UwyPQyTmgvlEE6K+UtCFQx4D73pZMd1wVY8C6jr2dAjAwKgzXIU1gndpSl32p1ytX2QEPcqoUumRnyx1Dqrekhl0tQBadBMg/+pG9nA1XJkyRvDT7ZSnlwNGHpFFalt5859h5oa0gd3GvmFtI3zfcJBRT0zBFuZU1xroSjKxVco3WD602aRo+1dVOifQyeqOmWy8Ohi65pTp7EN0x62x/LrIgPtstzUw3HCClXgasaJJOzgH0FboIsMOjPgSqGPCH7ur6uKqKgXQI8v7Q0b0OLOq0FEFUC/eHlA/7kqWoDDu9nkxSuoIHxQGynt1dtsq9Oh7nWqlALmZCdEfchPyi/rVMU7A6se7LUjJCqT8kmUkVpW7Mdd6krdDuFXOLXK0SOsZNlRlBek7kz2mNsa4ED9S6Er+bfaorduQNUqGX0Rs13XpxMGtqeIsv5B6xqcoFRwO+HAoRj84oXN4AWdCFdUN1cg7p4MkIWPPa/BgItnsu6AxHcvB9qdeTq7B/RqPVH/qvsa7+UT7veXXLj1KAnd7D5yEHL4GvjLQ3e/NNMUoU1MG15ssSGH9IMpMa4s6x84JQby2bz2E5O26wSSimQnn7H8K1xrqSPuVv+qmu3iA5vYyRUVOtF6effwMqJ919yIw0j09XTbuRaTgdAxKdnEPqm4yA2RD4OEiLUy9jVhrsDBOSIkK9ev8cX/K4tVXu1XN+lLkV/ngwTJj7IrzNGqbWTObEFsd6pk39FLYtmzPhr1lXnVBQjOWfWVR3cg6qb2rFfAqrpWwQYyqXy9r7YV8a6tX7Z7ixgNvJlF/2jqVgEXojMuve5GeX8qdN/RS2LVvgUR+Y8+IZBgWZYxgBa0LgI2H4ujvQu27ZlD82Day1btPVbR+sElZ0YKZMPdy2xcxPWNEJM/TK/MEIU/5HxXhdrDkb+zgYvtcW3Rne+um1ORvDTCSq/bDtm3zD1Y186xwpK4xNPdy25RR8sAmDd+SalyNT/sfFaJd0qP3Rkdk8+HdE1k56lWKYZc8ctn2Tn+HqnpqyT2LbQgjZgG6DuPTOEGlIf2Nn4U3+1m/yc9zQjUxd+uVNCDlDurSw+M7wWfrrP8i/Ok4IIeRANBvEA+wM78mvbK/enNr/PkEIIYQQQgghhBBCCCGEEEIIIYQQQgghhBBCCCGEEEIIIYQQQgghhBBCCCGEEEIIIYQQQgghhBBCCCGEEEIIIYQQQgghhJCPlYuL/wNbIpuHDKg8OgAAAABJRU5ErkJggg==;" vertex="1" parent="1">
          <mxGeometry x="20" y="10" width="1522" height="68" as="geometry" />
        </mxCell>
      </root>
    </mxGraphModel>
  </diagram>
</mxfile>
